{"title":"Tu Jo Mila Video Song - K.K. - Salman Khan, Nawazuddin, Harshaal","uid":12259269,"size":29013137,"categoryP":"video","categoryS":"music_videos","magnet":"?xt=urn:btih:09d04e1b55951716632b86ed248e997e601ab387&amp;dn=Tu+Jo+Mila+Video+Song+-+K.K.+-+Salman+Khan%2C+Nawazuddin%2C+Harshaal&amp;tr=udp%3A%2F%2Ftracker.openbittorrent.com%3A80&amp;tr=udp%3A%2F%2Fopen.demonii.com%3A1337&amp;tr=udp%3A%2F%2Ftracker.coppersurfer.tk%3A6969&amp;tr=udp%3A%2F%2Fexodus.desync.com%3A6969","seeders":7,"leechers":0,"uploader":"Aainul","files":3,"time":1440146566,"description":"Seeding From High Speed Seedbox.\n\nTu Jo Mila Video Song - K.K. - Salman Khan, Nawazuddin, Harshaali - Bajrangi Bhaijaan HD 720p - truHD HEVC\n\nSource: WEB-DL\n\nSource File Info:\n\nGeneral\nFormat : MPEG-4\nFormat profile : Base Media / Version 2\nCodec ID : mp42\nFile size : 41.4 MiB\nDuration : 2mn 33s\nOverall bit rate mode : Variable\nOverall bit rate : 2 259 Kbps\nEncoded date : UTC 2015-07-30 05:22:07\nTagged date : UTC 2015-07-30 05:22:07\n\n\nVideo\nID : 1\nFormat : AVC\nFormat/Info : Advanced Video Codec\nFormat profile : &lt;a class=&quot;__cf_email__&quot; href=&quot;/cdn-cgi/l/email-protection&quot; data-cfemail=&quot;eea6878986aea2ddc0df&quot;&gt;[email&amp;#160;protected]&lt;/a&gt;&lt;script data-cfhash='f9e31' type=&quot;text/javascript&quot;&gt;\n/* &lt;![CDATA[ */!function(){try{var t=&quot;currentScript&quot;in document?document.currentScript:function(){for(var t=document.getElementsByTagName(&quot;script&quot;),e=t.length;e--;)if(t[e].getAttribute(&quot;data-cfhash&quot;))return t[e]}();if(t&amp;&amp;t.previousSibling){var e,r,n,i,c=t.previousSibling,a=c.getAttribute(&quot;data-cfemail&quot;);if(a){for(e=&quot;&quot;,r=parseInt(a.substr(0,2),16),n=2;a.length-n;n+=2)i=parseInt(a.substr(n,2),16)^r,e+=String.fromCharCode(i);e=document.createTextNode(e),c.parentNode.replaceChild(e,c)}t.parentNode.removeChild(t);}}catch(u){}}()/* ]]&gt; */&lt;/script&gt;\nFormat settings, CABAC : Yes\nFormat settings, ReFrames : 1 frame\nCodec ID : avc1\nCodec ID/Info : Advanced Video Coding\nDuration : 2mn 33s\nBit rate : 2 065 Kbps\nMaximum bit rate : 6 741 Kbps\nWidth : 1 280 pixels\nHeight : 720 pixels\nDisplay aspect ratio : 16:9\nFrame rate mode : Constant\nFrame rate : 25.000 fps\nColor space : YUV\nChroma subsampling : 4:2:0\nBit depth : 8 bits\nScan type : Progressive\nBits/(Pixel*Frame) : 0.090\nStream size : 37.8 MiB (91%)\nTagged date : UTC 2015-07-30 05:22:08\n\nAudio\nID : 2\nFormat : AAC\nFormat/Info : Advanced Audio Codec\nFormat profile : LC\nCodec ID : 40\nDuration : 2mn 33s\nBit rate mode : Variable\nBit rate : 192 Kbps\nMaximum bit rate : 202 Kbps\nChannel(s) : 2 channels\nChannel positions : Front: L R\nSampling rate : 44.1 KHz\nCompression mode : Lossy\nStream size : 3.52 MiB (8%)\nTitle : IsoMedia File Produced by Google, 5-11-2011\nLanguage : English\nEncoded date : UTC 2015-07-30 05:22:08\nTagged date : UTC 2015-07-30 05:22:08\n\n\nEncoder: truHD HEVC Encoding Team\n\nEncoded File Info:\n\nGeneral\nFormat : MPEG-4\nFormat profile : Base Media / Version 2\nCodec ID : mp42\nFile size : 27.4 MiB\nDuration : 2mn 33s\nOverall bit rate mode : Variable\nOverall bit rate : 1 496 Kbps\nEncoded date : UTC 2036-02-06 06:28:16\nTagged date : UTC 2036-02-06 06:28:16\nWriting application : HandBrake 0.10.2 2015060900\n\nVideo\nID : 1\nFormat : HEVC\nFormat/Info : High Efficiency Video Coding\nCodec ID : hev1\nCodec ID/Info : High Efficiency Video Coding\nDuration : 2mn 33s\nBit rate : 1 330 Kbps\nWidth : 1 280 pixels\nHeight : 544 pixels\nDisplay aspect ratio : 2.35:1\nFrame rate mode : Constant\nFrame rate : 25.000 fps\nBits/(Pixel*Frame) : 0.076\nStream size : 24.4 MiB (89%)\nEncoded date : UTC 2036-02-06 06:28:16\nTagged date : UTC 2036-02-06 06:28:16\n\nAudio\nID : 2\nFormat : AAC\nFormat/Info : Advanced Audio Codec\nFormat profile : LC\nCodec ID : 40\nDuration : 2mn 33s\nBit rate mode : Variable\nBit rate : 160 Kbps\nChannel(s) : 2 channels\nChannel positions : Front: L R\nSampling rate : 44.1 KHz\nCompression mode : Lossy\nStream size : 2.94 MiB (11%)\nTitle : Stereo\nLanguage : English\nEncoded date : UTC 2036-02-06 06:28:16\nTagged date : UTC 2036-02-06 06:28:16\n\n\nScreenShots:\n &lt;a href=&quot;\nhttps://yuq.me/users/36/459/O3RkSJAC4x.jpg&quot; rel=&quot;nofollow&quot; target=&quot;_NEW&quot;&gt;\nhttps://yuq.me/users/36/459/O3RkSJAC4x.jpg&lt;/a&gt;\n\n\n\nLike Us On FB And Request Accepted @\n\nKickAssTorrents: https://kat.cr/user/Aainul/\nGloTorrents: https://glodls.to/user/Aainul\nThePirateBay: https://thepiratebay.vg/user/Aainul/\n1337x Torrents: http://1337.to/user/Aainul/\n\n\nNote: All Videos Uploaded By Me Are For Review Purpose. If You Like IT, Google IT And Buy IT - Thanks\n\n\nKing Regards\ntruHD HEVC Team\n\nShare Among Friends And Relatives","torrent":{"xt":"urn:btih:09d04e1b55951716632b86ed248e997e601ab387","amp;dn":"Tu+Jo+Mila+Video+Song+-+K.K.+-+Salman+Khan%2C+Nawazuddin%2C+Harshaal","amp;tr":["udp%3A%2F%2Ftracker.openbittorrent.com%3A80","udp%3A%2F%2Fopen.demonii.com%3A1337","udp%3A%2F%2Ftracker.coppersurfer.tk%3A6969","udp%3A%2F%2Fexodus.desync.com%3A6969"],"infoHash":"09d04e1b55951716632b86ed248e997e601ab387","infoHashBuffer":{"type":"Buffer","data":[9,208,78,27,85,149,23,22,99,43,134,237,36,142,153,126,96,26,179,135]},"announce":[],"urlList":[]}}